<svg data-v-423bf9ae="" xmlns="http://www.w3.org/2000/svg" viewBox="0 0 225 90" class="iconLeft"><!----><!----><!----><g data-v-423bf9ae="" id="aa0db7bf-6aa1-469c-a795-25ad9a7aa27e" fill="#ffffff" transform="matrix(5.946481575088099,0,0,5.946481575088099,90.92961934581662,-7.8344920630480175)"><path d="M4.79 3.91L4.07 3.91L2.79 3.91L2.79 4.19C2.79 4.34 2.88 4.42 3.07 4.44L3.23 4.44C3.32 4.44 3.43 4.45 3.58 4.45C3.74 4.45 3.91 4.47 4.07 4.47L4.07 10.53C4.07 11.00 4.02 11.42 3.92 11.77C3.81 12.12 3.65 12.42 3.46 12.64C3.26 12.87 3.01 13.05 2.73 13.16C2.45 13.27 2.13 13.33 1.78 13.33C1.64 13.33 1.50 13.31 1.40 13.30C1.30 13.29 1.20 13.26 1.12 13.24C1.04 13.23 0.97 13.22 0.91 13.20C0.85 13.19 0.80 13.17 0.76 13.17C0.69 13.17 0.66 13.19 0.63 13.22C0.60 13.24 0.59 13.29 0.57 13.33C0.57 13.40 0.57 13.45 0.56 13.52C0.56 13.59 0.55 13.65 0.53 13.72C0.76 13.79 0.98 13.85 1.19 13.87C1.40 13.90 1.62 13.93 1.83 13.93C2.30 13.93 2.70 13.85 3.07 13.71C3.43 13.55 3.75 13.34 4.00 13.05C4.26 12.75 4.45 12.40 4.59 11.98C4.73 11.56 4.79 11.07 4.79 10.51L4.79 4.47C4.96 4.47 5.11 4.45 5.25 4.45C5.39 4.45 5.49 4.44 5.56 4.44L5.70 4.44C5.88 4.42 5.98 4.34 5.98 4.19L5.98 3.91ZM7.91 4.89C7.97 4.94 8.04 4.98 8.11 5.01C8.18 5.04 8.26 5.07 8.34 5.07C8.43 5.07 8.51 5.04 8.58 5.01C8.65 4.98 8.72 4.94 8.78 4.89C8.83 4.83 8.89 4.76 8.92 4.69C8.95 4.62 8.97 4.54 8.97 4.45C8.97 4.37 8.95 4.30 8.92 4.21C8.89 4.14 8.83 4.07 8.78 4.02C8.72 3.96 8.65 3.91 8.58 3.88C8.51 3.85 8.43 3.84 8.34 3.84C8.26 3.84 8.18 3.85 8.11 3.88C8.04 3.91 7.97 3.96 7.91 4.02C7.85 4.07 7.81 4.14 7.78 4.21C7.76 4.28 7.73 4.37 7.73 4.45C7.73 4.54 7.76 4.62 7.78 4.69C7.81 4.76 7.85 4.83 7.91 4.89ZM9.41 13.29L9.34 13.29L9.23 13.29C9.18 13.29 9.11 13.27 9.02 13.27C8.92 13.27 8.81 13.26 8.68 13.26L8.68 6.85L8.01 6.85L7 6.85L7 7.13C7 7.28 7.10 7.36 7.28 7.38L7.35 7.38C7.38 7.38 7.42 7.39 7.46 7.39L7.67 7.39C7.77 7.39 7.88 7.41 8.01 7.41L8.01 13.26C7.85 13.26 7.71 13.29 7.60 13.29L7.36 13.29L7.28 13.29C7.10 13.30 7 13.38 7 13.54L7 13.82L8.01 13.82L8.68 13.82L9.69 13.82L9.69 13.54C9.69 13.38 9.59 13.30 9.41 13.29ZM18.19 13.29L18.12 13.29L18.00 13.29C17.96 13.29 17.89 13.27 17.79 13.27C17.70 13.27 17.58 13.26 17.46 13.26L17.46 9.37C17.46 8.96 17.40 8.60 17.30 8.27C17.21 7.95 17.07 7.67 16.87 7.45C16.67 7.22 16.44 7.06 16.14 6.93C15.85 6.80 15.51 6.75 15.13 6.75C14.62 6.75 14.14 6.87 13.72 7.11C13.30 7.36 12.94 7.67 12.61 8.08L12.56 7.03C12.54 6.92 12.47 6.86 12.35 6.86L11.98 6.86L10.98 6.86L10.98 7.13C10.98 7.28 11.06 7.36 11.24 7.38L11.33 7.38C11.35 7.38 11.38 7.39 11.42 7.39L11.63 7.39C11.73 7.39 11.86 7.41 11.98 7.41L11.98 13.26C11.82 13.26 11.68 13.29 11.56 13.29L11.34 13.29L11.24 13.29C11.06 13.30 10.98 13.38 10.98 13.54L10.98 13.82L11.98 13.82L12.64 13.82L13.65 13.82L13.65 13.54C13.65 13.38 13.57 13.30 13.38 13.29L13.30 13.29L13.20 13.29C13.16 13.29 13.09 13.27 12.99 13.27C12.89 13.27 12.77 13.26 12.64 13.26L12.64 8.60C12.95 8.19 13.30 7.87 13.69 7.63C14.08 7.39 14.50 7.28 14.97 7.28C15.58 7.28 16.04 7.46 16.34 7.83C16.63 8.20 16.79 8.71 16.79 9.37L16.79 13.82L17.46 13.82L18.47 13.82L18.47 13.54C18.47 13.38 18.37 13.30 18.19 13.29ZM20.66 4.89C20.72 4.94 20.79 4.98 20.86 5.01C20.93 5.04 21.01 5.07 21.10 5.07C21.18 5.07 21.27 5.04 21.34 5.01C21.41 4.98 21.48 4.94 21.53 4.89C21.59 4.83 21.64 4.76 21.67 4.69C21.70 4.62 21.73 4.54 21.73 4.45C21.73 4.37 21.70 4.30 21.67 4.21C21.64 4.14 21.59 4.07 21.53 4.02C21.48 3.96 21.41 3.91 21.34 3.88C21.27 3.85 21.18 3.84 21.10 3.84C21.01 3.84 20.93 3.85 20.86 3.88C20.79 3.91 20.72 3.96 20.66 4.02C20.61 4.07 20.57 4.14 20.54 4.21C20.51 4.28 20.48 4.37 20.48 4.45C20.48 4.54 20.51 4.62 20.54 4.69C20.57 4.76 20.61 4.83 20.66 4.89ZM22.16 13.29L22.09 13.29L21.98 13.29C21.94 13.29 21.87 13.27 21.77 13.27C21.67 13.27 21.56 13.26 21.43 13.26L21.43 6.85L20.76 6.85L19.75 6.85L19.75 7.13C19.75 7.28 19.85 7.36 20.03 7.38L20.10 7.38C20.13 7.38 20.17 7.39 20.22 7.39L20.43 7.39C20.52 7.39 20.64 7.41 20.76 7.41L20.76 13.26C20.61 13.26 20.47 13.29 20.36 13.29L20.12 13.29L20.03 13.29C19.85 13.30 19.75 13.38 19.75 13.54L19.75 13.82L20.76 13.82L21.43 13.82L22.44 13.82L22.44 13.54C22.44 13.38 22.34 13.30 22.16 13.29Z"></path></g><!----><g data-v-423bf9ae="" id="22b28690-c4ed-4bc0-85c3-ed0cc7706b91" transform="matrix(2.8125,0,0,2.8125,-7.170000076293945,0)" stroke="none" fill="#142A19"><path d="M2.83 18.247l26.34-9.124L2.83 0zM29.17 32V13.753L2.83 22.877z"></path></g><!----></svg>